<mxfile host="Electron" modified="2023-10-14T22:57:04.220Z" agent="Mozilla/5.0 (Macintosh; Intel Mac OS X 10_15_7) AppleWebKit/537.36 (KHTML, like Gecko) draw.io/22.0.2 Chrome/114.0.5735.289 Electron/25.8.4 Safari/537.36" etag="lQoESAZuGlZFT2H4TZuC" version="22.0.2" type="device">
  <diagram name="Page-1" id="Uutv_e023GWJRvH_tVWF">
    <mxGraphModel dx="1495" dy="1935" grid="1" gridSize="10" guides="1" tooltips="1" connect="1" arrows="1" fold="1" page="1" pageScale="1" pageWidth="850" pageHeight="1100" background="none" math="0" shadow="0">
      <root>
        <mxCell id="0" />
        <mxCell id="1" parent="0" />
        <mxCell id="SS3YMO9yG1wia0A45Ayx-47" style="rounded=0;orthogonalLoop=1;jettySize=auto;html=1;entryX=0;entryY=0.5;entryDx=0;entryDy=0;shape=link;" edge="1" parent="1" source="SS3YMO9yG1wia0A45Ayx-2" target="SS3YMO9yG1wia0A45Ayx-6">
          <mxGeometry relative="1" as="geometry">
            <mxPoint x="430" y="201" as="targetPoint" />
          </mxGeometry>
        </mxCell>
        <mxCell id="SS3YMO9yG1wia0A45Ayx-2" value="&lt;div style=&quot;color: rgb(218, 227, 227); background-color: rgb(31, 39, 42); font-family: Menlo, Monaco, &amp;quot;Courier New&amp;quot;, monospace; line-height: 18px;&quot;&gt;&lt;div&gt;    Serial.&lt;span style=&quot;color: #f39c12;&quot;&gt;println&lt;/span&gt;(hex_value);  &lt;/div&gt;&lt;br&gt;&lt;/div&gt;" style="rounded=0;whiteSpace=wrap;html=1;" vertex="1" parent="1">
          <mxGeometry x="190" y="160" width="190" height="81.73" as="geometry" />
        </mxCell>
        <mxCell id="SS3YMO9yG1wia0A45Ayx-3" value="&lt;font style=&quot;font-size: 24px;&quot;&gt;Baixa de &lt;br&gt;Medicamento&lt;/font&gt;" style="text;html=1;align=center;verticalAlign=middle;resizable=0;points=[];autosize=1;fillColor=none;strokeColor=default;" vertex="1" parent="1">
          <mxGeometry x="670" y="-80" width="170" height="70" as="geometry" />
        </mxCell>
        <mxCell id="SS3YMO9yG1wia0A45Ayx-50" style="edgeStyle=orthogonalEdgeStyle;rounded=0;orthogonalLoop=1;jettySize=auto;html=1;entryX=0;entryY=0.5;entryDx=0;entryDy=0;" edge="1" parent="1" source="SS3YMO9yG1wia0A45Ayx-6" target="SS3YMO9yG1wia0A45Ayx-48">
          <mxGeometry relative="1" as="geometry" />
        </mxCell>
        <mxCell id="SS3YMO9yG1wia0A45Ayx-6" value="&lt;div style=&quot;color: rgb(248, 248, 242); background-color: rgb(40, 42, 54); font-family: Menlo, Monaco, &amp;quot;Courier New&amp;quot;, monospace; line-height: 18px;&quot;&gt;&lt;div style=&quot;line-height: 18px;&quot;&gt;ser.readline()&lt;/div&gt;&lt;/div&gt;" style="rounded=0;whiteSpace=wrap;html=1;" vertex="1" parent="1">
          <mxGeometry x="440" y="160.86" width="130" height="80" as="geometry" />
        </mxCell>
        <mxCell id="SS3YMO9yG1wia0A45Ayx-7" value="" style="endArrow=none;html=1;rounded=0;dashed=1;dashPattern=8 8;" edge="1" parent="1">
          <mxGeometry width="50" height="50" relative="1" as="geometry">
            <mxPoint x="410" y="323" as="sourcePoint" />
            <mxPoint x="410" y="63" as="targetPoint" />
          </mxGeometry>
        </mxCell>
        <mxCell id="SS3YMO9yG1wia0A45Ayx-8" value="&lt;font style=&quot;font-size: 24px;&quot;&gt;Script&lt;/font&gt;" style="text;html=1;align=center;verticalAlign=middle;resizable=0;points=[];autosize=1;strokeColor=none;fillColor=none;" vertex="1" parent="1">
          <mxGeometry x="705" y="70.57999999999998" width="80" height="40" as="geometry" />
        </mxCell>
        <mxCell id="SS3YMO9yG1wia0A45Ayx-9" value="&lt;font style=&quot;font-size: 24px;&quot;&gt;Arduino&lt;br&gt;&lt;/font&gt;" style="text;html=1;align=center;verticalAlign=middle;resizable=0;points=[];autosize=1;strokeColor=none;fillColor=none;" vertex="1" parent="1">
          <mxGeometry x="240" y="73.98" width="110" height="40" as="geometry" />
        </mxCell>
        <mxCell id="SS3YMO9yG1wia0A45Ayx-12" value="Script ouve a porta USB que&lt;br&gt;o Arduino printou o ID" style="text;html=1;align=center;verticalAlign=middle;resizable=0;points=[];autosize=1;strokeColor=none;fillColor=none;" vertex="1" parent="1">
          <mxGeometry x="420" y="241.73" width="180" height="40" as="geometry" />
        </mxCell>
        <mxCell id="SS3YMO9yG1wia0A45Ayx-13" value="&lt;div style=&quot;color: rgb(248, 248, 242); background-color: rgb(40, 42, 54); font-family: Menlo, Monaco, &amp;quot;Courier New&amp;quot;, monospace; line-height: 18px;&quot;&gt;&lt;div style=&quot;line-height: 18px;&quot;&gt;&lt;div style=&quot;line-height: 18px;&quot;&gt;await &lt;span style=&quot;color: #8be9fd;&quot;&gt;RemedioModel&lt;/span&gt;.&lt;span style=&quot;color: #50fa7b;&quot;&gt;updateOne&lt;/span&gt;()&lt;/div&gt;&lt;/div&gt;&lt;/div&gt;" style="rounded=0;whiteSpace=wrap;html=1;" vertex="1" parent="1">
          <mxGeometry x="1070" y="161.73" width="240" height="80" as="geometry" />
        </mxCell>
        <mxCell id="SS3YMO9yG1wia0A45Ayx-15" value="Atualização do status e quantidade&lt;br&gt;é feita no banco, após&lt;br&gt;seguir algumas lógicas" style="text;html=1;align=center;verticalAlign=middle;resizable=0;points=[];autosize=1;strokeColor=none;fillColor=none;" vertex="1" parent="1">
          <mxGeometry x="1090" y="240.86" width="210" height="60" as="geometry" />
        </mxCell>
        <mxCell id="SS3YMO9yG1wia0A45Ayx-43" value="" style="shape=image;verticalLabelPosition=bottom;labelBackgroundColor=default;verticalAlign=top;aspect=fixed;imageAspect=0;image=https://brandslogos.com/wp-content/uploads/images/large/arduino-logo-1.png;" vertex="1" parent="1">
          <mxGeometry x="180" y="60.290000000000006" width="64.75" height="64.8" as="geometry" />
        </mxCell>
        <mxCell id="SS3YMO9yG1wia0A45Ayx-44" value="" style="shape=image;verticalLabelPosition=bottom;labelBackgroundColor=default;verticalAlign=top;aspect=fixed;imageAspect=0;image=https://s3.dualstack.us-east-2.amazonaws.com/pythondotorg-assets/media/community/logos/python-logo-only.png;" vertex="1" parent="1">
          <mxGeometry x="655" y="60.29" width="50" height="60.59" as="geometry" />
        </mxCell>
        <mxCell id="SS3YMO9yG1wia0A45Ayx-45" value="" style="endArrow=none;html=1;rounded=0;dashed=1;dashPattern=8 8;" edge="1" parent="1">
          <mxGeometry width="50" height="50" relative="1" as="geometry">
            <mxPoint x="1040" y="323" as="sourcePoint" />
            <mxPoint x="1040" y="63" as="targetPoint" />
          </mxGeometry>
        </mxCell>
        <mxCell id="SS3YMO9yG1wia0A45Ayx-54" style="edgeStyle=orthogonalEdgeStyle;rounded=0;orthogonalLoop=1;jettySize=auto;html=1;entryX=0;entryY=0.5;entryDx=0;entryDy=0;" edge="1" parent="1" source="SS3YMO9yG1wia0A45Ayx-48" target="SS3YMO9yG1wia0A45Ayx-52">
          <mxGeometry relative="1" as="geometry" />
        </mxCell>
        <mxCell id="SS3YMO9yG1wia0A45Ayx-48" value="&lt;div style=&quot;color: rgb(248, 248, 242); background-color: rgb(40, 42, 54); font-family: Menlo, Monaco, &amp;quot;Courier New&amp;quot;, monospace; line-height: 18px;&quot;&gt;&lt;div style=&quot;line-height: 18px;&quot;&gt;&lt;div style=&quot;line-height: 18px;&quot;&gt;&lt;div&gt;payload = {&lt;/div&gt;&lt;div&gt;                &lt;span style=&quot;color: #e9f284;&quot;&gt;&quot;&lt;/span&gt;&lt;span style=&quot;color: #f1fa8c;&quot;&gt;nfcId&lt;/span&gt;&lt;span style=&quot;color: #e9f284;&quot;&gt;&quot;&lt;/span&gt;: decoded_line.&lt;span style=&quot;color: #50fa7b;&quot;&gt;strip&lt;/span&gt;(),&lt;/div&gt;&lt;div&gt;              }&lt;/div&gt;&lt;/div&gt;&lt;/div&gt;&lt;/div&gt;" style="rounded=0;whiteSpace=wrap;html=1;" vertex="1" parent="1">
          <mxGeometry x="615" y="160.86" width="170" height="80" as="geometry" />
        </mxCell>
        <mxCell id="SS3YMO9yG1wia0A45Ayx-51" value="Após isso, formata o payload para&lt;br&gt;enviar para a API" style="text;html=1;align=center;verticalAlign=middle;resizable=0;points=[];autosize=1;strokeColor=none;fillColor=none;" vertex="1" parent="1">
          <mxGeometry x="600" y="240.85999999999999" width="210" height="40" as="geometry" />
        </mxCell>
        <mxCell id="SS3YMO9yG1wia0A45Ayx-58" style="edgeStyle=orthogonalEdgeStyle;rounded=0;orthogonalLoop=1;jettySize=auto;html=1;" edge="1" parent="1" source="SS3YMO9yG1wia0A45Ayx-52">
          <mxGeometry relative="1" as="geometry">
            <mxPoint x="1060" y="200" as="targetPoint" />
          </mxGeometry>
        </mxCell>
        <mxCell id="SS3YMO9yG1wia0A45Ayx-52" value="&lt;div style=&quot;color: rgb(248, 248, 242); background-color: rgb(40, 42, 54); font-family: Menlo, Monaco, &amp;quot;Courier New&amp;quot;, monospace; line-height: 18px;&quot;&gt;&lt;div style=&quot;line-height: 18px;&quot;&gt;&lt;div style=&quot;line-height: 18px;&quot;&gt;&lt;div style=&quot;line-height: 18px;&quot;&gt;              requests.post(&lt;span style=&quot;color: #bd93f9;&quot;&gt;URL&lt;/span&gt;, &lt;span style=&quot;color: #ffb86c;font-style: italic;&quot;&gt;json&lt;/span&gt;&lt;span style=&quot;color: #ff79c6;&quot;&gt;=&lt;/span&gt;payload, &lt;span style=&quot;color: #ffb86c;font-style: italic;&quot;&gt;headers&lt;/span&gt;&lt;span style=&quot;color: #ff79c6;&quot;&gt;=&lt;/span&gt;headers)&lt;/div&gt;&lt;/div&gt;&lt;/div&gt;&lt;/div&gt;" style="rounded=0;whiteSpace=wrap;html=1;" vertex="1" parent="1">
          <mxGeometry x="850" y="160" width="170" height="80" as="geometry" />
        </mxCell>
        <mxCell id="SS3YMO9yG1wia0A45Ayx-53" value="Envio da baixa para a API&amp;nbsp;" style="text;html=1;align=center;verticalAlign=middle;resizable=0;points=[];autosize=1;strokeColor=none;fillColor=none;" vertex="1" parent="1">
          <mxGeometry x="860" y="245" width="160" height="30" as="geometry" />
        </mxCell>
        <mxCell id="SS3YMO9yG1wia0A45Ayx-56" value="&lt;font style=&quot;font-size: 24px;&quot;&gt;API&lt;/font&gt;" style="text;html=1;align=center;verticalAlign=middle;resizable=0;points=[];autosize=1;strokeColor=none;fillColor=none;" vertex="1" parent="1">
          <mxGeometry x="1180" y="70.57999999999998" width="60" height="40" as="geometry" />
        </mxCell>
        <mxCell id="SS3YMO9yG1wia0A45Ayx-57" value="Arduino printa no terminal o ID&amp;nbsp;&lt;br&gt;da tag NFC lida" style="text;html=1;align=center;verticalAlign=middle;resizable=0;points=[];autosize=1;strokeColor=none;fillColor=none;" vertex="1" parent="1">
          <mxGeometry x="190" y="245" width="190" height="40" as="geometry" />
        </mxCell>
      </root>
    </mxGraphModel>
  </diagram>
</mxfile>
